<svg id="Layer_1" xmlns="http://www.w3.org/2000/svg" viewBox="0 0 120 24"><style>.st0{fill:#fff}</style><path class="st0" d="M59.8 18.6c.3.3.3.7 0 1-.3.3-.7.3-1 0l-7.8-8c-.3-.3-.3-.7 0-1l7.8-7.9c.3-.3.7-.3 1 0 .3.3.3.7 0 1l-7.1 7.4 7.1 7.5zm47.1-7.5l-7.1-7.4c-.3-.3-.3-.7 0-1 .3-.3.7-.3 1 0l7.8 7.9c.3.3.3.7 0 1l-7.8 7.9c-.3.3-.7.3-1 0-.3-.3-.3-.7 0-1l7.1-7.4zm-85.9 9l-8.2-8.2 8-8c.3-.3.3-.8 0-1.1s-.8-.3-1.1 0l-8 8-7.6-7.7c-.3-.3-.8-.3-1.1 0s-.3.8 0 1.1l7.7 7.7-8 8c-.3.3-.3.8 0 1.1.1.1.3.2.5.2s.4-.1.5-.2l8-8 8.2 8.2c.1.1.3.2.5.2s.4-.1.5-.2c.4-.4.4-.8.1-1.1z"/></svg>